HIERARCHY
ROOT Hips
{
	OFFSET 0.00000 0.00000 0.00000
	CHANNELS 6 Xposition Yposition Zposition Zrotation Yrotation Xrotation 
	JOINT LHipJoint
	{
		OFFSET 0 0 0
		CHANNELS 3 Zrotation Yrotation Xrotation
		JOINT LeftUpLeg
		{
			OFFSET 1.30186 -1.90722 0.65024
			CHANNELS 3 Zrotation Yrotation Xrotation
			JOINT LeftLeg
			{
				OFFSET 2.56413 -7.04489 0.00000
				CHANNELS 3 Zrotation Yrotation Xrotation
				JOINT LeftFoot
				{
					OFFSET 2.79321 -7.67428 0.00000
					CHANNELS 3 Zrotation Yrotation Xrotation
					JOINT LeftToeBase
					{
						OFFSET 0.15723 -0.43198 2.08537
						CHANNELS 3 Zrotation Yrotation Xrotation
						End Site
						{
							OFFSET 0.00000 -0.00000 1.07411
						}
					}
				}
			}
		}
	}
	JOINT RHipJoint
	{
		OFFSET 0 0 0
		CHANNELS 3 Zrotation Yrotation Xrotation
		JOINT RightUpLeg
		{
			OFFSET -1.28627 -1.90723 0.65024
			CHANNELS 3 Zrotation Yrotation Xrotation
			JOINT RightLeg
			{
				OFFSET -2.56567 -7.04913 0.00000
				CHANNELS 3 Zrotation Yrotation Xrotation
				JOINT RightFoot
				{
					OFFSET -2.75597 -7.57198 0.00000
					CHANNELS 3 Zrotation Yrotation Xrotation
					JOINT RightToeBase
					{
						OFFSET -0.17500 -0.48081 2.22901
						CHANNELS 3 Zrotation Yrotation Xrotation
						End Site
						{
							OFFSET -0.00000 -0.00000 1.14762
						}
					}
				}
			}
		}
	}
	JOINT LowerBack
	{
		OFFSET 0 0 0
		CHANNELS 3 Zrotation Yrotation Xrotation
		JOINT Spine
		{
			OFFSET -0.04522 2.07467 -0.16566
			CHANNELS 3 Zrotation Yrotation Xrotation
			JOINT Spine1
			{
				OFFSET -0.01178 2.08825 -0.05393
				CHANNELS 3 Zrotation Yrotation Xrotation
				JOINT Neck
				{
					OFFSET 0 0 0
					CHANNELS 3 Zrotation Yrotation Xrotation
					JOINT Neck1
					{
						OFFSET -0.05182 1.80489 0.16014
						CHANNELS 3 Zrotation Yrotation Xrotation
						JOINT Head
						{
							OFFSET 0.14739 1.78840 -0.33342
							CHANNELS 3 Zrotation Yrotation Xrotation
							End Site
							{
								OFFSET 0.04364 1.83899 -0.13460
							}
						}
					}
				}
				JOINT LeftShoulder
				{
					OFFSET 0 0 0
					CHANNELS 3 Zrotation Yrotation Xrotation
					JOINT LeftArm
					{
						OFFSET 3.01264 1.29090 -0.06579
						CHANNELS 3 Zrotation Yrotation Xrotation
						JOINT LeftForeArm
						{
							OFFSET 5.55680 -0.00000 0.00000
							CHANNELS 3 Zrotation Yrotation Xrotation
							JOINT LeftHand
							{
								OFFSET 3.63979 -0.00000 -0.00000
								CHANNELS 3 Zrotation Yrotation Xrotation
								JOINT LeftFingerBase
								{
									OFFSET 0 0 0
									CHANNELS 3 Zrotation Yrotation Xrotation
									JOINT LeftHandIndex1
									{
										OFFSET 0.56942 -0.00000 -0.00000
										CHANNELS 3 Zrotation Yrotation Xrotation
										End Site
										{
											OFFSET 0.45908 -0.00000 -0.00000
										}
									}
								}
								JOINT LThumb
								{
									OFFSET 0 0 0
									CHANNELS 3 Zrotation Yrotation Xrotation
									End Site
									{
										OFFSET 0.46609 -0.00000 0.46609
									}
								}
							}
						}
					}
				}
				JOINT RightShoulder
				{
					OFFSET 0 0 0
					CHANNELS 3 Zrotation Yrotation Xrotation
					JOINT RightArm
					{
						OFFSET -3.15796 1.37283 -0.36748
						CHANNELS 3 Zrotation Yrotation Xrotation
						JOINT RightForeArm
						{
							OFFSET -5.34339 -0.00000 0.00000
							CHANNELS 3 Zrotation Yrotation Xrotation
							JOINT RightHand
							{
								OFFSET -3.65101 -0.00000 -0.00000
								CHANNELS 3 Zrotation Yrotation Xrotation
								JOINT RightFingerBase
								{
									OFFSET 0 0 0
									CHANNELS 3 Zrotation Yrotation Xrotation
									JOINT RightHandIndex1
									{
										OFFSET -0.69425 -0.00000 -0.00000
										CHANNELS 3 Zrotation Yrotation Xrotation
										End Site
										{
											OFFSET -0.55972 -0.00000 -0.00000
										}
									}
								}
								JOINT RThumb
								{
									OFFSET 0 0 0
									CHANNELS 3 Zrotation Yrotation Xrotation
									End Site
									{
										OFFSET -0.56827 -0.00000 0.56827
									}
								}
							}
						}
					}
				}
			}
		}
	}
}
MOTION
Frames: 7
Frame Time: .0083333
7.1782 18.124 -8.4013 0 0 0 0 0 0 -21 0 0 0 0 0 0 0 0 0 0 0 0 0 0 21 0 0 0 0 0 0 0 0 0 0 0 0 0 0 0 0 0 0 0 0 0 0 -16 0 0 21 0 0 11 0 0 0 -8 0 0 0 0 0 0 0 0 0 0 0 0 0 0 0 0 0 0 0 0 8 0 0 0 0 0 0 0 0 0 0 0 0 0 0 0 0 0
7.1782 18.1240 -8.4013 5.4233 -9.3443 2.9330 0.0000 0.0000 0.0000 -15.0987 -17.6702 -22.4076 1.6722 8.1470 23.1614 0.0086 1.7868 -3.2369 0.0805 -1.8296 -5.0351 0.0000 0.0000 0.0000 18.5801 4.1142 6.6386 -0.6281 -5.0712 14.1119 0.0980 -26.3310 -36.4234 -1.5771 -7.9231 22.4809 -3.8230 2.0109 0.6807 -2.1048 2.6499 0.2683 -0.0416 1.3232 -0.1797 -2.0979 -1.0817 -9.5390 -0.3780 -1.0690 16.6113 0.1351 -0.6792 6.6411 -0.0000 -0.0000 0.0000 -88.0415 8.3117 5.3616 19.7140 -30.2963 -5.3863 -0.0000 0.0000 -15.2367 21.0875 21.8963 8.1834 -7.1250 0.0000 -0.0000 -8.0413 53.1070 -1.6120 -0.0000 -0.0000 0.0000 90.6136 -10.9226 4.5985 -14.7758 23.8328 -3.1348 0.0000 0.0000 6.2418 -13.6679 26.4792 -6.1883 7.1250 -0.0000 -0.0000 9.7632 -3.1759 9.3461
7.2046 18.1265 -8.3610 5.4787 -9.2407 3.1105 0.0000 0.0000 0.0000 -15.2738 -17.7248 -22.5990 1.7016 8.2148 23.3685 0.0137 1.5457 -3.3176 0.0579 -1.5526 -4.2708 0.0000 0.0000 0.0000 18.3252 3.7529 6.4797 -0.6217 -5.0459 14.0394 0.2062 -26.4703 -36.0304 -1.4089 -7.5077 21.2285 -3.7140 1.9580 0.4649 -2.2792 2.5875 0.1539 -0.2743 1.2928 -0.1616 -1.8440 -1.1829 -9.3755 -0.5259 -1.2290 16.3975 0.0340 -0.7514 6.5425 0.0000 -0.0000 0.0000 -87.8927 8.3613 6.6050 20.5103 -31.2522 -5.7937 -0.0000 0.0000 -16.6648 22.1861 27.7517 10.7520 -7.1250 0.0000 -0.0000 -9.4499 59.3375 -3.3278 0.0000 -0.0000 0.0000 90.7231 -11.0670 5.0863 -14.7729 23.8287 -3.1336 0.0000 0.0000 6.5105 -14.8300 27.8154 -7.0431 7.1250 -0.0000 -0.0000 9.1651 -1.6736 9.0106
7.2269 18.1243 -8.3329 5.6388 -9.0544 3.0910 0.0000 0.0000 0.0000 -15.6304 -17.5755 -22.5952 1.7036 8.2193 23.3823 0.0134 1.2818 -3.0400 0.0522 -1.4740 -4.0539 0.0000 0.0000 0.0000 18.0493 3.4487 6.3901 -0.6413 -5.1233 14.2605 0.2096 -26.4399 -35.9688 -1.3089 -7.2472 20.4500 -3.7662 1.9510 0.3885 -2.3845 2.5821 0.1543 -0.3501 1.2895 -0.1157 -2.0376 -1.3429 -9.2873 -0.3203 -1.4542 16.2901 0.1138 -0.8543 6.4976 0.0000 -0.0000 0.0000 -88.0596 9.2117 15.7146 23.9422 -35.1031 -7.6733 -0.0000 0.0000 -43.2865 46.4348 12.6107 12.9279 -7.1250 0.0000 -0.0000 18.4914 47.0826 0.9827 0.0000 -0.0000 0.0000 90.7425 -11.0136 5.1770 -14.7067 23.7359 -3.1069 0.0000 0.0000 6.8401 -14.9037 27.8641 -7.0907 7.1250 -0.0000 -0.0000 9.1253 -1.6137 8.9804
7.2394 18.1175 -8.3072 5.9183 -8.8548 2.9358 0.0000 0.0000 0.0000 -16.0586 -17.5690 -22.4579 1.7199 8.2564 23.4957 0.0133 1.1407 -2.9083 0.0193 -0.8975 -2.4667 0.0000 0.0000 0.0000 17.7535 3.3598 6.6450 -0.6423 -5.1274 14.2721 0.2077 -26.5319 -36.1094 -1.2624 -7.1222 20.0779 -4.1352 1.9831 0.6344 -2.4315 2.6045 0.0813 -0.2049 1.3044 -0.3431 -2.4340 -1.4640 -9.3229 0.0314 -1.6144 16.3946 0.2775 -0.9277 6.5453 0.0000 -0.0000 0.0000 -87.7035 7.8584 8.1213 20.9169 -31.7312 -6.0062 -0.0000 0.0000 -15.9816 24.3493 21.1719 9.2828 -7.1250 0.0000 -0.0000 -4.4838 52.9564 -0.8791 0.0000 -0.0000 0.0000 90.7541 -10.8551 4.3841 -14.4037 23.3090 -2.9860 0.0000 0.0000 7.6522 -14.7124 27.8266 -6.9879 7.1250 -0.0000 -0.0000 9.2355 -1.6800 9.0806
7.2559 18.1172 -8.2658 6.1950 -8.7854 2.8962 0.0000 0.0000 0.0000 -16.4551 -17.7237 -22.3541 1.7454 8.3143 23.6729 0.0182 1.0553 -3.1665 0.0018 -0.2749 -0.7553 0.0000 0.0000 0.0000 17.3584 3.2598 6.8404 -0.6346 -5.0971 14.1858 0.1742 -26.4407 -36.1636 -1.2457 -7.0767 19.9429 -4.5802 1.9258 0.6937 -2.4632 2.5156 -0.0207 0.0061 1.2638 -0.4965 -2.5372 -1.4555 -9.6430 0.1053 -1.5891 16.6113 0.3173 -0.9169 6.6719 0.0000 0.0000 0.0000 -87.7399 7.7462 9.0024 22.1554 -33.1522 -6.6706 -0.0000 0.0000 -15.5657 28.3579 29.5151 14.8909 -7.1250 0.0000 -0.0000 -3.2035 62.7060 -1.3786 0.0000 0.0000 0.0000 90.6433 -10.6466 4.1179 -14.0726 22.8384 -2.8562 0.0000 0.0000 8.3795 -14.6143 27.9937 -6.9776 7.1250 -0.0000 -0.0000 9.3064 -1.5278 9.1778
7.2778 18.1217 -8.2193 6.0078 -8.7146 2.9456 0.0000 0.0000 0.0000 -16.4006 -17.7398 -22.3403 1.7720 8.3741 23.8563 0.0257 0.7855 -3.4261 0.0116 -0.6948 -1.9095 0.0000 0.0000 0.0000 17.4242 3.0173 6.9322 -0.6307 -5.0816 14.1413 0.2031 -26.3828 -35.9238 -1.1780 -6.8887 19.3861 -4.4255 1.9045 0.3797 -2.4273 2.5135 0.0679 -0.0291 1.2574 -0.2242 -2.4675 -1.5121 -10.0104 0.0583 -1.6589 16.7102 0.2816 -0.9504 6.7679 0.0000 -0.0000 0.0000 -87.8135 7.5626 9.3378 21.6308 -32.5573 -6.3860 -0.0000 0.0000 -16.0466 25.6126 15.6017 7.3467 -7.1250 0.0000 -0.0000 -1.9695 47.1762 -0.1058 0.0000 -0.0000 0.0000 90.5915 -10.3173 4.2922 -13.9236 22.6254 -2.7986 0.0000 0.0000 8.5996 -14.5108 27.9017 -6.9058 7.1250 -0.0000 -0.0000 9.3604 -1.6351 9.2144
